{
  "accessors": [
    {
      "bufferView": 2,
      "componentType": 5126,
      "count": 3624,
      "max": [
        0.2878398895263672,
        9.924457550048828,
        2.8349993228912354
      ],
      "min": [
        -0.2878379821777344,
        0.0,
        -2.835001230239868
      ],
      "type": "VEC3"
    },
    {
      "bufferView": 2,
      "byteOffset": 43488,
      "componentType": 5126,
      "count": 3624,
      "max": [
        1.0,
        1.0,
        1.0
      ],
      "min": [
        -1.0,
        -1.0,
        -1.0
      ],
      "type": "VEC3"
    },
    {
      "bufferView": 3,
      "componentType": 5126,
      "count": 3624,
      "max": [
        1.0,
        1.0,
        1.0,
        1.0
      ],
      "min": [
        -1.0,
        -1.0,
        -1.0,
        1.0
      ],
      "type": "VEC4"
    },
    {
      "bufferView": 1,
      "componentType": 5126,
      "count": 3624,
      "max": [
        0.99723219871521,
        0.9972966313362122
      ],
      "min": [
        0.00269982498139143,
        0.002698540687561035
      ],
      "type": "VEC2"
    },
    {
      "bufferView": 1,
      "byteOffset": 28992,
      "componentType": 5126,
      "count": 3624,
      "max": [
        0.99723219871521,
        0.9972966313362122
      ],
      "min": [
        0.00269982498139143,
        0.002698540687561035
      ],
      "type": "VEC2"
    },
    {
      "bufferView": 1,
      "byteOffset": 57984,
      "componentType": 5126,
      "count": 3624,
      "max": [
        0.99723219871521,
        0.9972966313362122
      ],
      "min": [
        0.00269982498139143,
        0.002698540687561035
      ],
      "type": "VEC2"
    },
    {
      "bufferView": 1,
      "byteOffset": 86976,
      "componentType": 5126,
      "count": 3624,
      "max": [
        0.99723219871521,
        0.9972966313362122
      ],
      "min": [
        0.00269982498139143,
        0.002698540687561035
      ],
      "type": "VEC2"
    },
    {
      "bufferView": 0,
      "componentType": 5125,
      "count": 11478,
      "type": "SCALAR"
    },
    {
      "bufferView": 2,
      "byteOffset": 86976,
      "componentType": 5126,
      "count": 4892,
      "max": [
        2.484504222869873,
        9.924457550048828,
        2.8349993228912354
      ],
      "min": [
        -2.484506607055664,
        0.0,
        -1.507045030593872
      ],
      "type": "VEC3"
    },
    {
      "bufferView": 2,
      "byteOffset": 145680,
      "componentType": 5126,
      "count": 4892,
      "max": [
        1.0,
        1.0,
        1.0
      ],
      "min": [
        -1.0,
        -1.0,
        -1.0
      ],
      "type": "VEC3"
    },
    {
      "bufferView": 3,
      "byteOffset": 57984,
      "componentType": 5126,
      "count": 4892,
      "max": [
        1.0,
        1.0,
        1.0,
        1.0
      ],
      "min": [
        -1.0,
        -1.0,
        -1.0,
        1.0
      ],
      "type": "VEC4"
    },
    {
      "bufferView": 1,
      "byteOffset": 115968,
      "componentType": 5126,
      "count": 4892,
      "max": [
        0.9971292614936829,
        0.9972966313362122
      ],
      "min": [
        0.00269982498139143,
        0.0026984810829162598
      ],
      "type": "VEC2"
    },
    {
      "bufferView": 1,
      "byteOffset": 155104,
      "componentType": 5126,
      "count": 4892,
      "max": [
        0.9971292614936829,
        0.9972966313362122
      ],
      "min": [
        0.00269982498139143,
        0.0026984810829162598
      ],
      "type": "VEC2"
    },
    {
      "bufferView": 1,
      "byteOffset": 194240,
      "componentType": 5126,
      "count": 4892,
      "max": [
        0.9971292614936829,
        0.9972966313362122
      ],
      "min": [
        0.00269982498139143,
        0.0026984810829162598
      ],
      "type": "VEC2"
    },
    {
      "bufferView": 1,
      "byteOffset": 233376,
      "componentType": 5126,
      "count": 4892,
      "max": [
        0.9971292614936829,
        0.9972966313362122
      ],
      "min": [
        0.00269982498139143,
        0.0026984810829162598
      ],
      "type": "VEC2"
    },
    {
      "bufferView": 0,
      "byteOffset": 45912,
      "componentType": 5125,
      "count": 15750,
      "type": "SCALAR"
    },
    {
      "bufferView": 2,
      "byteOffset": 204384,
      "componentType": 5126,
      "count": 2296,
      "max": [
        0.2878398895263672,
        9.924457550048828,
        2.8349993228912354
      ],
      "min": [
        -0.2878379821777344,
        0.0,
        -0.9770345091819763
      ],
      "type": "VEC3"
    },
    {
      "bufferView": 2,
      "byteOffset": 231936,
      "componentType": 5126,
      "count": 2296,
      "max": [
        1.0,
        1.0,
        1.0
      ],
      "min": [
        -1.0,
        -1.0,
        -1.0
      ],
      "type": "VEC3"
    },
    {
      "bufferView": 3,
      "byteOffset": 136256,
      "componentType": 5126,
      "count": 2296,
      "max": [
        1.0,
        1.0,
        1.0,
        1.0
      ],
      "min": [
        -1.0,
        -1.0,
        -1.0,
        1.0
      ],
      "type": "VEC4"
    },
    {
      "bufferView": 1,
      "byteOffset": 272512,
      "componentType": 5126,
      "count": 2296,
      "max": [
        0.9967647194862366,
        0.9972966313362122
      ],
      "min": [
        0.00269982498139143,
        0.002698540687561035
      ],
      "type": "VEC2"
    },
    {
      "bufferView": 1,
      "byteOffset": 290880,
      "componentType": 5126,
      "count": 2296,
      "max": [
        0.9967647194862366,
        0.9972966313362122
      ],
      "min": [
        0.00269982498139143,
        0.002698540687561035
      ],
      "type": "VEC2"
    },
    {
      "bufferView": 1,
      "byteOffset": 309248,
      "componentType": 5126,
      "count": 2296,
      "max": [
        0.9967647194862366,
        0.9972966313362122
      ],
      "min": [
        0.00269982498139143,
        0.002698540687561035
      ],
      "type": "VEC2"
    },
    {
      "bufferView": 1,
      "byteOffset": 327616,
      "componentType": 5126,
      "count": 2296,
      "max": [
        0.9967647194862366,
        0.9972966313362122
      ],
      "min": [
        0.00269982498139143,
        0.002698540687561035
      ],
      "type": "VEC2"
    },
    {
      "bufferView": 0,
      "byteOffset": 108912,
      "componentType": 5125,
      "count": 6888,
      "type": "SCALAR"
    },
    {
      "bufferView": 2,
      "byteOffset": 259488,
      "componentType": 5126,
      "count": 414,
      "max": [
        24.10165023803711,
        8.159293174743652,
        0.14586663246154785
      ],
      "min": [
        0.09603255242109299,
        7.125208854675293,
        0.0638720840215683
      ],
      "type": "VEC3"
    },
    {
      "bufferView": 2,
      "byteOffset": 264456,
      "componentType": 5126,
      "count": 414,
      "max": [
        0.6305050849914551,
        0.9999696612358093,
        0.9999977350234985
      ],
      "min": [
        -0.630994975566864,
        -0.9999696612358093,
        -0.9999977350234985
      ],
      "type": "VEC3"
    },
    {
      "bufferView": 3,
      "byteOffset": 172992,
      "componentType": 5126,
      "count": 414,
      "max": [
        0.4901960790157318,
        0.0,
        0.0,
        1.0
      ],
      "min": [
        0.0,
        0.0,
        0.0,
        1.0
      ],
      "type": "VEC4"
    },
    {
      "bufferView": 1,
      "byteOffset": 345984,
      "componentType": 5126,
      "count": 414,
      "max": [
        0.9950263500213623,
        0.416061133146286
      ],
      "min": [
        0.004952579736709595,
        0.0049724578857421875
      ],
      "type": "VEC2"
    },
    {
      "bufferView": 0,
      "byteOffset": 136464,
      "componentType": 5125,
      "count": 1632,
      "type": "SCALAR"
    },
    {
      "bufferView": 2,
      "byteOffset": 269424,
      "componentType": 5126,
      "count": 442,
      "max": [
        0.12670598924160004,
        8.224477767944336,
        5.529601097106934
      ],
      "min": [
        -10.175128936767578,
        -0.12325230240821838,
        -1.348751425743103
      ],
      "type": "VEC3"
    },
    {
      "bufferView": 2,
      "byteOffset": 274728,
      "componentType": 5126,
      "count": 442,
      "max": [
        0.9901862144470215,
        0.9989274740219116,
        0.9692099094390869
      ],
      "min": [
        -0.9917050004005432,
        -0.999459981918335,
        -0.9863594770431519
      ],
      "type": "VEC3"
    },
    {
      "bufferView": 3,
      "byteOffset": 179616,
      "componentType": 5126,
      "count": 442,
      "max": [
        0.49803921580314636,
        0.0,
        0.0,
        1.0
      ],
      "min": [
        0.0,
        0.0,
        0.0,
        1.0
      ],
      "type": "VEC4"
    },
    {
      "bufferView": 1,
      "byteOffset": 349296,
      "componentType": 5126,
      "count": 442,
      "max": [
        1.0,
        1.0
      ],
      "min": [
        0.0,
        0.0
      ],
      "type": "VEC2"
    },
    {
      "bufferView": 0,
      "byteOffset": 142992,
      "componentType": 5125,
      "count": 2046,
      "type": "SCALAR"
    },
    {
      "bufferView": 2,
      "byteOffset": 280032,
      "componentType": 5126,
      "count": 815,
      "max": [
        0.26703977584838867,
        8.274640083312988,
        0.29163867235183716
      ],
      "min": [
        -0.3343046009540558,
        5.185598850250244,
        -0.36835113167762756
      ],
      "type": "VEC3"
    },
    {
      "bufferView": 2,
      "byteOffset": 289812,
      "componentType": 5126,
      "count": 815,
      "max": [
        0.9982478618621826,
        0.9994550347328186,
        0.996502697467804
      ],
      "min": [
        -0.9977473616600037,
        -0.9995023012161255,
        -0.9996538162231445
      ],
      "type": "VEC3"
    },
    {
      "bufferView": 3,
      "byteOffset": 186688,
      "componentType": 5126,
      "count": 815,
      "max": [
        0.1725490242242813,
        0.0,
        0.0,
        1.0
      ],
      "min": [
        0.0,
        0.0,
        0.0,
        1.0
      ],
      "type": "VEC4"
    },
    {
      "bufferView": 1,
      "byteOffset": 352832,
      "componentType": 5126,
      "count": 815,
      "max": [
        1.0,
        1.0
      ],
      "min": [
        0.0,
        0.0
      ],
      "type": "VEC2"
    },
    {
      "bufferView": 0,
      "byteOffset": 151176,
      "componentType": 5125,
      "count": 3714,
      "type": "SCALAR"
    },
    {
      "bufferView": 2,
      "byteOffset": 299592,
      "componentType": 5126,
      "count": 71,
      "max": [
        24.103384017944336,
        8.145593643188477,
        0.11765743792057037
      ],
      "min": [
        0.09686394780874252,
        6.217552185058594,
        0.09375133365392685
      ],
      "type": "VEC3"
    },
    {
      "bufferView": 2,
      "byteOffset": 300444,
      "componentType": 5126,
      "count": 71,
      "max": [
        0.2761751711368561,
        1.0,
        0.9996986389160156
      ],
      "min": [
        -0.2790241837501526,
        -1.0,
        -0.9994686245918274
      ],
      "type": "VEC3"
    },
    {
      "bufferView": 3,
      "byteOffset": 199728,
      "componentType": 5126,
      "count": 71,
      "max": [
        0.4901960790157318,
        0.0,
        0.0,
        1.0
      ],
      "min": [
        0.0,
        0.0,
        0.0,
        1.0
      ],
      "type": "VEC4"
    },
    {
      "bufferView": 1,
      "byteOffset": 359352,
      "componentType": 5126,
      "count": 71,
      "max": [
        1.0,
        1.0
      ],
      "min": [
        0.0,
        0.0
      ],
      "type": "VEC2"
    },
    {
      "bufferView": 0,
      "byteOffset": 166032,
      "componentType": 5125,
      "count": 300,
      "type": "SCALAR"
    }
  ],
  "asset": {
    "extras": {
      "author": "Nicolai Kilstrup (https://sketchfab.com/nkilstrup)",
      "license": "CC-BY-4.0 (http://creativecommons.org/licenses/by/4.0/)",
      "source": "https://sketchfab.com/3d-models/pripyat-light-poles-7166d53851a54d2fb2bdbf2695694e10",
      "title": "Pripyat light poles"
    },
    "generator": "Sketchfab-14.87.0",
    "version": "2.0"
  },
  "bufferViews": [
    {
      "buffer": 0,
      "byteLength": 167232,
      "name": "floatBufferViews",
      "target": 34963
    },
    {
      "buffer": 0,
      "byteLength": 359920,
      "byteOffset": 167232,
      "byteStride": 8,
      "name": "floatBufferViews",
      "target": 34962
    },
    {
      "buffer": 0,
      "byteLength": 301296,
      "byteOffset": 527152,
      "byteStride": 12,
      "name": "floatBufferViews",
      "target": 34962
    },
    {
      "buffer": 0,
      "byteLength": 200864,
      "byteOffset": 828448,
      "byteStride": 16,
      "name": "floatBufferViews",
      "target": 34962
    }
  ],
  "buffers": [
    {
      "byteLength": 1029312,
      "uri": "scene.bin"
    }
  ],
  "images": [
    {
      "uri": "textures/Lightpole_baseColor.png"
    },
    {
      "uri": "textures/Lightpole_metallicRoughness.png"
    },
    {
      "uri": "textures/Lightpole_normal.png"
    }
  ],
  "materials": [
    {
      "alphaMode": "BLEND",
      "doubleSided": true,
      "name": "Lightpole",
      "normalTexture": {
        "index": 2
      },
      "occlusionTexture": {
        "index": 1
      },
      "pbrMetallicRoughness": {
        "baseColorTexture": {
          "index": 0
        },
        "metallicRoughnessTexture": {
          "index": 1
        }
      }
    },
    {
      "doubleSided": true,
      "name": "Material.001",
      "pbrMetallicRoughness": {
        "baseColorFactor": [
          0.05,
          0.05,
          0.05,
          1.0
        ],
        "metallicFactor": 0.0,
        "roughnessFactor": 0.55848
      }
    }
  ],
  "meshes": [
    {
      "name": "Object_0",
      "primitives": [
        {
          "attributes": {
            "NORMAL": 1,
            "POSITION": 0,
            "TANGENT": 2,
            "TEXCOORD_0": 3,
            "TEXCOORD_1": 4,
            "TEXCOORD_2": 5,
            "TEXCOORD_3": 6
          },
          "indices": 7,
          "material": 0,
          "mode": 4
        }
      ]
    },
    {
      "name": "Object_1",
      "primitives": [
        {
          "attributes": {
            "NORMAL": 9,
            "POSITION": 8,
            "TANGENT": 10,
            "TEXCOORD_0": 11,
            "TEXCOORD_1": 12,
            "TEXCOORD_2": 13,
            "TEXCOORD_3": 14
          },
          "indices": 15,
          "material": 0,
          "mode": 4
        }
      ]
    },
    {
      "name": "Object_2",
      "primitives": [
        {
          "attributes": {
            "NORMAL": 17,
            "POSITION": 16,
            "TANGENT": 18,
            "TEXCOORD_0": 19,
            "TEXCOORD_1": 20,
            "TEXCOORD_2": 21,
            "TEXCOORD_3": 22
          },
          "indices": 23,
          "material": 0,
          "mode": 4
        }
      ]
    },
    {
      "name": "Object_3",
      "primitives": [
        {
          "attributes": {
            "COLOR_0": 26,
            "NORMAL": 25,
            "POSITION": 24,
            "TEXCOORD_0": 27
          },
          "indices": 28,
          "material": 1,
          "mode": 4
        }
      ]
    },
    {
      "name": "Object_4",
      "primitives": [
        {
          "attributes": {
            "COLOR_0": 31,
            "NORMAL": 30,
            "POSITION": 29,
            "TEXCOORD_0": 32
          },
          "indices": 33,
          "material": 1,
          "mode": 4
        }
      ]
    },
    {
      "name": "Object_5",
      "primitives": [
        {
          "attributes": {
            "COLOR_0": 36,
            "NORMAL": 35,
            "POSITION": 34,
            "TEXCOORD_0": 37
          },
          "indices": 38,
          "material": 1,
          "mode": 4
        }
      ]
    },
    {
      "name": "Object_6",
      "primitives": [
        {
          "attributes": {
            "COLOR_0": 41,
            "NORMAL": 40,
            "POSITION": 39,
            "TEXCOORD_0": 42
          },
          "indices": 43,
          "material": 1,
          "mode": 4
        }
      ]
    }
  ],
  "nodes": [
    {
      "children": [
        1
      ],
      "matrix": [
        1.0,
        0.0,
        0.0,
        0.0,
        0.0,
        2.220446049250313e-16,
        -1.0,
        0.0,
        0.0,
        1.0,
        2.220446049250313e-16,
        0.0,
        0.0,
        0.0,
        0.0,
        1.0
      ],
      "name": "Sketchfab_model"
    },
    {
      "children": [
        2
      ],
      "name": "root"
    },
    {
      "children": [
        3,
        5,
        7,
        9,
        11,
        13,
        15
      ],
      "matrix": [
        1.0,
        0.0,
        0.0,
        0.0,
        0.0,
        2.220446049250313e-16,
        1.0,
        0.0,
        0.0,
        -1.0,
        2.220446049250313e-16,
        0.0,
        0.0,
        0.0,
        0.0,
        1.0
      ],
      "name": "GLTF_SceneRootNode"
    },
    {
      "children": [
        4
      ],
      "matrix": [
        1.0,
        0.0,
        0.0,
        0.0,
        0.0,
        1.0,
        0.0,
        0.0,
        0.0,
        0.0,
        1.0,
        0.0,
        0.0,
        0.0,
        -5.0,
        1.0
      ],
      "name": "LightPole_02_0"
    },
    {
      "mesh": 0,
      "name": "Object_4"
    },
    {
      "children": [
        6
      ],
      "matrix": [
        1.0,
        0.0,
        0.0,
        0.0,
        0.0,
        1.0,
        0.0,
        0.0,
        0.0,
        0.0,
        1.0,
        0.0,
        0.0,
        0.0,
        5.0,
        1.0
      ],
      "name": "LightPole_03_1"
    },
    {
      "mesh": 1,
      "name": "Object_6"
    },
    {
      "children": [
        8
      ],
      "name": "LightPole_01_2"
    },
    {
      "mesh": 2,
      "name": "Object_8"
    },
    {
      "children": [
        10
      ],
      "matrix": [
        1.0,
        0.0,
        0.0,
        0.0,
        0.0,
        1.0,
        0.0,
        0.0,
        0.0,
        0.0,
        1.0,
        0.0,
        0.0,
        0.0,
        5.0,
        1.0
      ],
      "name": "PowerCable_02_3"
    },
    {
      "mesh": 3,
      "name": "Object_10"
    },
    {
      "children": [
        12
      ],
      "name": "PowerCable_04_4"
    },
    {
      "mesh": 4,
      "name": "Object_12"
    },
    {
      "children": [
        14
      ],
      "name": "PowerCable_03_5"
    },
    {
      "mesh": 5,
      "name": "Object_14"
    },
    {
      "children": [
        16
      ],
      "matrix": [
        1.0,
        0.0,
        0.0,
        0.0,
        0.0,
        1.0,
        0.0,
        0.0,
        0.0,
        0.0,
        1.0,
        0.0,
        0.0,
        0.0,
        -5.0,
        1.0
      ],
      "name": "PowerCable_01_6"
    },
    {
      "mesh": 6,
      "name": "Object_16"
    }
  ],
  "samplers": [
    {
      "magFilter": 9729,
      "minFilter": 9987,
      "wrapS": 10497,
      "wrapT": 10497
    }
  ],
  "scene": 0,
  "scenes": [
    {
      "name": "Sketchfab_Scene",
      "nodes": [
        0
      ]
    }
  ],
  "textures": [
    {
      "sampler": 0,
      "source": 0
    },
    {
      "sampler": 0,
      "source": 1
    },
    {
      "sampler": 0,
      "source": 2
    }
  ]
}
